<svg width="74" height="74" viewBox="0 0 74 74" fill="none" xmlns="http://www.w3.org/2000/svg">
<path fill-rule="evenodd" clip-rule="evenodd" d="M53.7487 5.65685L34.6569 24.7487L37.8674 27.9593L45.447 20L53.1148 27.3019L45.3568 35.4487L48.8326 38.9245L67.9245 19.8326L53.7487 5.65685ZM42.5975 38.3463L48.8326 44.5813L73.5813 19.8326L53.7487 0L29 24.7487L35.1081 30.8569L30.9608 35.2121L24.7487 29L0 53.7487L19.8326 73.5813L44.5813 48.8326L38.4502 42.7015L42.5975 38.3463ZM28.2015 38.1096L22 44.6219L29.6679 51.9239L35.6909 45.599L38.9245 48.8326L19.8326 67.9245L5.65685 53.7487L24.7487 34.6569L28.2015 38.1096Z" fill="white"/>
</svg>
