<svg width="110" height="110" viewBox="0 0 110 110" fill="none" xmlns="http://www.w3.org/2000/svg">
<path d="M110 55C110 85.3757 85.3757 110 55 110C24.6243 110 0 85.3757 0 55C0 24.6243 24.6243 0 55 0C85.3757 0 110 24.6243 110 55Z" fill="#2aacc8"/>
<g clip-path="url(#clip0)">
<path d="M81.1136 28.8866C75.9488 23.709 67.5496 23.709 62.3848 28.8866L28.0466 63.2121C27.7781 63.4805 27.6119 63.8257 27.5608 64.1964L25.0167 83.0403C24.94 83.5772 25.1318 84.1142 25.5025 84.4849C25.8221 84.8045 26.2696 84.9963 26.717 84.9963C26.7937 84.9963 26.8704 84.9963 26.9471 84.9835L38.2995 83.4494C53 81.9408 44.4742 80.9692 44.3464 80.0232C44.2185 79.0772 50.433 78.2846 37.8392 80.0232L28.7369 81.2505L30.5139 68.1084L44.3464 81.9408C44.666 82.2604 45.1134 82.4522 45.5609 82.4522C46.0083 82.4522 46.4558 82.2732 46.7754 81.9408L81.1136 47.6154C83.6193 45.1097 85 41.7858 85 38.2446C85 34.7034 83.6193 31.3795 81.1136 28.8866ZM63.0496 33.1054L68.8153 38.871L37.4813 70.205L31.7156 64.4393L63.0496 33.1054ZM45.5737 78.2846L39.9358 72.6468L71.2698 41.3128L76.9076 46.9506L45.5737 78.2846ZM79.311 44.4833L65.5169 30.6892C67.2684 29.2446 69.4545 28.4519 71.7556 28.4519C74.3764 28.4519 76.8309 29.4747 78.6846 31.3156C80.5383 33.1565 81.5483 35.6239 81.5483 38.2446C81.5483 40.5585 80.7557 42.7318 79.311 44.4833Z" fill="#fff"/>
</g>
<defs>
<clipPath id="clip0">
<rect width="60" height="60" fill="white" transform="translate(25 25)"/>
</clipPath>
</defs>
</svg>
