<svg width="110" height="110" viewBox="0 0 110 110" fill="none" xmlns="http://www.w3.org/2000/svg">
<path d="M110 55C110 85.3757 85.3757 110 55 110C24.6243 110 0 85.3757 0 55C0 24.6243 24.6243 0 55 0C85.3757 0 110 24.6243 110 55Z" fill="#2aacc8"/>
<path d="M88.9802 31.4521C88.9852 31.422 88.9941 31.392 88.9966 31.362C89.0055 31.2695 88.9954 31.1757 88.984 31.082C88.9814 31.0582 88.9852 31.0357 88.9814 31.0119C88.9587 30.8882 88.9169 30.7669 88.8549 30.6506C88.8448 30.6306 88.8309 30.6118 88.8195 30.5918C88.8169 30.5893 88.8169 30.5856 88.8157 30.5818C88.8144 30.5793 88.8106 30.5781 88.8093 30.5743C88.8005 30.5606 88.7929 30.5456 88.784 30.5331C88.7056 30.4193 88.6107 30.3255 88.5044 30.2455C88.4804 30.228 88.4525 30.218 88.4272 30.2017C88.3336 30.1405 88.2349 30.0904 88.1286 30.0567C88.0818 30.0417 88.035 30.0342 87.9869 30.0254C87.8945 30.0067 87.8021 29.9979 87.706 30.0004C87.6553 30.0017 87.6073 30.0042 87.5566 30.0117C87.5237 30.0167 87.4921 30.0117 87.4592 30.0192L14.0096 45.0182C13.487 45.1257 13.0872 45.5446 13.0125 46.0672C12.9379 46.5898 13.2023 47.1025 13.6743 47.3488L34.7199 58.318L38.411 78.5571C38.4085 78.5721 38.4123 78.5884 38.411 78.6034C38.3983 78.7034 38.3971 78.8009 38.4097 78.8997C38.416 78.9497 38.4224 78.9972 38.435 79.046C38.4641 79.1648 38.511 79.2761 38.5742 79.3811C38.5869 79.4011 38.5869 79.4249 38.6008 79.4449C38.6046 79.4511 38.6109 79.4561 38.616 79.4611C38.6324 79.4849 38.6552 79.5036 38.6742 79.5274C38.7337 79.5999 38.7957 79.6662 38.8665 79.7224C38.8779 79.7312 38.8855 79.7449 38.8982 79.7537C38.9171 79.7674 38.9386 79.7712 38.9576 79.7837C39.0348 79.8337 39.1145 79.875 39.1993 79.9075C39.2335 79.92 39.2651 79.935 39.3005 79.945C39.4144 79.9775 39.5321 80 39.651 80C39.6523 80 39.6536 80 39.6548 80C39.6599 80 39.665 79.9975 39.67 79.9975C39.6915 79.9988 39.7131 80 39.7346 80C40.0851 80 40.4014 79.845 40.6355 79.6061L54.6545 70.3712L69.3328 79.7987C69.5403 79.9312 69.7807 80 70.0224 80C70.1553 80 70.2907 79.9787 70.421 79.9362C70.7854 79.8162 71.0765 79.5386 71.2093 79.181L88.9194 31.6821C88.9359 31.6396 88.9498 31.5958 88.9612 31.5508C88.9663 31.5321 88.9675 31.5133 88.9713 31.4958C88.9751 31.4821 88.9776 31.4671 88.9802 31.4521ZM74.3247 39.4329L43.9647 61.4901C43.9153 61.5263 43.8761 61.5713 43.8331 61.6138C43.8166 61.6289 43.8002 61.6414 43.7863 61.6576C43.7597 61.6864 43.7357 61.7151 43.7116 61.7464C43.6888 61.7764 43.6711 61.8076 43.6509 61.8389C43.6041 61.9139 43.5648 61.9914 43.5345 62.074C43.5281 62.0902 43.518 62.1027 43.513 62.119C43.5117 62.124 43.5066 62.1265 43.5054 62.1315L40.0256 73.3057L37.2684 58.1879L74.3247 39.4329ZM41.9869 75.7114L45.4363 64.4534L50.8065 67.903L52.3427 68.8895L47.1243 72.3267L41.9869 75.7114ZM78.8547 34.3303L35.8663 56.0874L17.974 46.7624L78.8547 34.3303ZM69.3834 76.8492L49.8904 64.3308L46.9383 62.4341L85.0942 34.7117L69.3834 76.8492Z" fill="white"/>
</svg>
