<svg width="60" height="60" viewBox="0 0 60 60" fill="none" xmlns="http://www.w3.org/2000/svg">
<g clip-path="url(#clip0)">
<path d="M51.062 20.9167C39.173 9.02775 19.83 9.02775 7.941 20.9167L0 28.8567L8.138 36.9947C14.082 42.9387 21.89 45.9118 29.699 45.9118C37.508 45.9118 45.315 42.9397 51.26 36.9947L59.201 29.0537L51.062 20.9167Z" fill="white"/>
<path d="M30 16C22.832 16 17 21.832 17 29C17 36.168 22.832 42 30 42C37.168 42 43 36.168 43 29C43 21.832 37.169 16 30 16ZM30 39C23.935 39 20 35.065 20 29C20 22.935 23.935 19 30 19C36.065 19 40 22.935 40 29C40 35.065 36.066 39 30 39Z" fill="#61C0C6"/>
</g>
<defs>
<clipPath id="clip0">
<rect width="59.2" height="59.2" fill="white"/>
</clipPath>
</defs>
</svg>
