<svg width="110" height="110" viewBox="0 0 110 110" fill="none" xmlns="http://www.w3.org/2000/svg">
<path d="M110 55C110 85.3757 85.3757 110 55 110C24.6243 110 0 85.3757 0 55C0 24.6243 24.6243 0 55 0C85.3757 0 110 24.6243 110 55Z" fill="#2aacc8"/>
<path d="M82.8091 29.3359H27.1909C25.9828 29.3359 25 30.3188 25 31.5268V78.6041C25 79.8122 25.9828 80.795 27.1909 80.795H82.8091C84.0172 80.795 85 79.8122 85 78.6041V31.5268C85 30.3188 84.0172 29.3359 82.8091 29.3359ZM81.4844 32.8516V35.4768L60.9326 35.5267C60.3838 35.5281 59.8601 35.735 59.4577 36.1099L56.5665 38.8084H28.5156V32.8516H81.4844ZM28.5156 77.2794V42.3236H57.0979C57.6491 42.3236 58.1746 42.1167 58.5774 41.7404L61.47 39.041L81.4848 38.992V77.2794H28.5156Z" fill="white"/>
<path d="M36.3892 36.2156C36.3997 36.2714 36.4139 36.3277 36.4313 36.3831C36.4478 36.4367 36.4679 36.492 36.489 36.5447C36.5109 36.5973 36.5356 36.65 36.5627 36.7003C36.5897 36.7507 36.619 36.8001 36.6505 36.8482C36.6821 36.8962 36.7174 36.9429 36.7535 36.9864C36.7902 37.0308 36.8286 37.0743 36.8698 37.1155C36.9096 37.1563 36.9527 37.1952 36.9975 37.2313C37.0419 37.2675 37.0886 37.3018 37.1367 37.3334C37.1838 37.365 37.2342 37.3952 37.2845 37.4222C37.3349 37.4492 37.3875 37.4739 37.4402 37.495C37.4928 37.5174 37.5468 37.5371 37.6022 37.5536C37.6572 37.5701 37.7135 37.5843 37.7684 37.5957C37.8247 37.6076 37.8824 37.6159 37.9396 37.6213C37.9968 37.6273 38.0554 37.6296 38.1117 37.6296C38.1689 37.6296 38.2275 37.6273 38.2852 37.6213C38.3415 37.6159 38.3987 37.6076 38.455 37.5957C38.5114 37.5843 38.5677 37.5701 38.6226 37.5536C38.6766 37.5371 38.732 37.5174 38.7842 37.495C38.8373 37.4739 38.8899 37.4492 38.9403 37.4222C38.9906 37.3952 39.0401 37.365 39.0881 37.3334C39.1357 37.3018 39.1829 37.2675 39.2264 37.2313C39.2722 37.1952 39.3143 37.1563 39.355 37.1155C39.3962 37.0743 39.4351 37.0308 39.4713 36.9864C39.5074 36.9429 39.5413 36.8962 39.5743 36.8482C39.6049 36.8001 39.6352 36.7507 39.6622 36.7003C39.6892 36.65 39.7139 36.5973 39.735 36.5447C39.7569 36.492 39.7771 36.4367 39.7935 36.3831C39.81 36.3277 39.8238 36.2714 39.8357 36.2156C39.8476 36.1592 39.8553 36.1016 39.8613 36.0453C39.8672 35.988 39.8695 35.9295 39.8695 35.8722C39.8695 35.8146 39.8672 35.7573 39.8613 35.6997C39.8553 35.6424 39.8476 35.5848 39.8357 35.5285C39.8238 35.4726 39.8096 35.4163 39.7935 35.3623C39.7771 35.3074 39.7569 35.2533 39.735 35.2007C39.7139 35.1467 39.6892 35.0949 39.6622 35.0446C39.6352 34.9942 39.6049 34.9439 39.5743 34.8972C39.5413 34.8491 39.5074 34.802 39.4713 34.7576C39.4347 34.7132 39.3962 34.6697 39.355 34.6299C39.3143 34.5887 39.2722 34.5502 39.2264 34.514C39.1829 34.4774 39.1357 34.4422 39.0881 34.4106C39.0401 34.379 38.9906 34.3497 38.9403 34.3227C38.8899 34.2957 38.8373 34.2714 38.7842 34.249C38.732 34.2279 38.6766 34.2078 38.6226 34.1918C38.5677 34.1739 38.5114 34.1602 38.455 34.1492C38.3987 34.1378 38.3415 34.1295 38.2852 34.1236C38.1703 34.1121 38.0545 34.1121 37.9396 34.1236C37.8824 34.1295 37.8247 34.1378 37.7684 34.1492C37.7135 34.1602 37.6572 34.1739 37.6022 34.1918C37.5468 34.2078 37.4928 34.2279 37.4402 34.249C37.3875 34.2714 37.3349 34.2957 37.2845 34.3227C37.2342 34.3497 37.1838 34.379 37.1367 34.4106C37.0886 34.4422 37.0419 34.4774 36.9975 34.514C36.9527 34.5502 36.9096 34.5887 36.8698 34.6299C36.8286 34.6697 36.7902 34.7132 36.7535 34.7576C36.7174 34.802 36.6821 34.8491 36.6505 34.8972C36.619 34.9439 36.5897 34.9942 36.5627 35.0446C36.5356 35.0949 36.5114 35.1467 36.489 35.2007C36.4679 35.2533 36.4478 35.3074 36.4313 35.3623C36.4139 35.4163 36.3997 35.4726 36.3892 35.5285C36.3773 35.5848 36.3695 35.6424 36.3635 35.6997C36.3576 35.7573 36.3539 35.8146 36.3539 35.8722C36.3539 35.9295 36.3576 35.988 36.3635 36.0453C36.3695 36.102 36.3777 36.1592 36.3892 36.2156Z" fill="white"/>
<path d="M31.3725 37.2313C31.4174 37.268 31.4641 37.3018 31.5121 37.3334C31.5588 37.365 31.6096 37.3957 31.66 37.4227C31.7104 37.4492 31.763 37.4739 31.8156 37.495C31.8683 37.5174 31.9223 37.5371 31.9772 37.5536C32.0326 37.5701 32.0876 37.5843 32.1439 37.5957C32.2002 37.6076 32.2574 37.6159 32.3151 37.6218C32.3723 37.6273 32.4295 37.63 32.4872 37.63C32.5444 37.63 32.603 37.6273 32.6607 37.6218C32.717 37.6159 32.7742 37.6076 32.8305 37.5957C32.8868 37.5843 32.9431 37.5701 32.998 37.5536C33.0521 37.5371 33.107 37.5174 33.1596 37.495C33.2123 37.4739 33.2654 37.4492 33.3157 37.4227C33.3661 37.3957 33.4155 37.365 33.4636 37.3334C33.5112 37.3018 33.5583 37.268 33.6018 37.2313C33.6462 37.1952 33.6897 37.1563 33.7305 37.1155C33.7717 37.0743 33.8101 37.0313 33.8467 36.9864C33.8829 36.9434 33.9168 36.8962 33.9484 36.8482C33.9799 36.8001 34.0106 36.7511 34.0376 36.7008C34.0646 36.6504 34.0889 36.5973 34.1104 36.5447C34.1324 36.492 34.1525 36.4371 34.169 36.3831C34.185 36.3282 34.1992 36.2719 34.2111 36.2156C34.2226 36.1592 34.2308 36.102 34.2368 36.0457C34.2427 35.988 34.245 35.9295 34.245 35.8722C34.245 35.8146 34.2427 35.7573 34.2368 35.6997C34.2308 35.6424 34.2226 35.5852 34.2111 35.5289C34.1992 35.4726 34.185 35.4177 34.169 35.3623C34.1525 35.3074 34.1324 35.2533 34.1104 35.2007C34.0889 35.1467 34.0646 35.0954 34.0376 35.0451C34.0106 34.9942 33.9799 34.9439 33.9484 34.8972C33.9168 34.8491 33.8829 34.8024 33.8467 34.7576C33.8101 34.7132 33.7717 34.6697 33.7305 34.6299C33.6897 34.5891 33.6462 34.5502 33.6018 34.5127C33.5583 34.4779 33.5112 34.4426 33.4636 34.411C33.4155 34.379 33.3661 34.3497 33.3157 34.3232C33.2654 34.2962 33.2123 34.2714 33.1596 34.249C33.107 34.2279 33.0521 34.2083 32.998 34.1918C32.9431 34.1744 32.8868 34.1602 32.8305 34.1497C32.7742 34.1378 32.717 34.1295 32.6607 34.1236C32.5458 34.1121 32.4295 34.1121 32.3151 34.1236C32.2574 34.1295 32.2002 34.1378 32.1439 34.1497C32.0876 34.1602 32.0326 34.1744 31.9772 34.1918C31.9223 34.2083 31.8683 34.2279 31.8156 34.249C31.763 34.2714 31.7104 34.2962 31.66 34.3232C31.6096 34.3497 31.5593 34.379 31.5121 34.411C31.4641 34.4426 31.4174 34.4779 31.3725 34.5127C31.3281 34.5502 31.2846 34.5891 31.2448 34.6299C31.2041 34.6697 31.1652 34.7132 31.129 34.7576C31.0928 34.8024 31.0576 34.8491 31.026 34.8972C30.9944 34.9439 30.9651 34.9942 30.9381 35.0451C30.9111 35.0954 30.8864 35.1467 30.864 35.2007C30.8429 35.2533 30.8232 35.3074 30.8067 35.3623C30.7893 35.4177 30.7751 35.4726 30.7646 35.5289C30.7527 35.5852 30.7449 35.6424 30.739 35.6997C30.733 35.7573 30.7294 35.8146 30.7294 35.8722C30.7294 36.335 30.9171 36.7873 31.2448 37.1155C31.2846 37.1563 31.3281 37.1952 31.3725 37.2313Z" fill="white"/>
<path d="M42.1313 36.2156C42.1419 36.2714 42.1556 36.3277 42.1735 36.3831C42.1899 36.4367 42.2096 36.492 42.2307 36.5447C42.2531 36.5973 42.2774 36.65 42.3044 36.7003C42.3314 36.7507 42.3607 36.8001 42.3923 36.8482C42.4243 36.8962 42.4591 36.9429 42.4957 36.9864C42.5319 37.0308 42.5708 37.0743 42.6115 37.1155C42.6514 37.1563 42.6949 37.1952 42.7393 37.2313C42.7841 37.2675 42.8308 37.3018 42.8789 37.3334C42.9256 37.365 42.9759 37.3952 43.0263 37.4222C43.0771 37.4492 43.1293 37.4739 43.1824 37.495C43.235 37.5174 43.289 37.5371 43.344 37.5536C43.3994 37.5701 43.4552 37.5843 43.5101 37.5957C43.5664 37.6076 43.6241 37.6159 43.6813 37.6213C43.739 37.6273 43.7976 37.6296 43.8539 37.6296C43.9111 37.6296 43.9697 37.6273 44.0269 37.6213C44.0846 37.6159 44.1409 37.6076 44.1982 37.5957C44.2535 37.5843 44.3094 37.5701 44.3648 37.5536C44.4197 37.5371 44.4737 37.5174 44.5264 37.495C44.579 37.4739 44.6317 37.4492 44.682 37.4222C44.7328 37.3952 44.7827 37.365 44.8299 37.3334C44.8779 37.3018 44.9246 37.2675 44.9695 37.2313C45.0139 37.1952 45.0574 37.1563 45.0972 37.1155C45.1379 37.0743 45.1768 37.0308 45.213 36.9864C45.2496 36.9429 45.2835 36.8962 45.316 36.8482C45.3467 36.8001 45.3773 36.7507 45.4039 36.7003C45.4309 36.65 45.4556 36.5973 45.4767 36.5447C45.4991 36.492 45.5188 36.4367 45.5353 36.3831C45.5518 36.3277 45.5655 36.2714 45.5774 36.2156C45.5893 36.1592 45.5975 36.1016 45.603 36.0453C45.609 35.988 45.6113 35.9295 45.6113 35.8722C45.6113 35.8146 45.609 35.7573 45.603 35.6997C45.5975 35.6424 45.5893 35.5848 45.5774 35.5285C45.5655 35.4726 45.5518 35.4172 45.5353 35.3623C45.5188 35.3074 45.4991 35.2533 45.4767 35.2007C45.4556 35.148 45.4309 35.0949 45.4039 35.0446C45.3773 34.9942 45.3467 34.9439 45.316 34.8972C45.2835 34.8491 45.2496 34.802 45.213 34.7576C45.1768 34.7132 45.1379 34.6697 45.0972 34.6299C45.0574 34.5887 45.0139 34.5502 44.9695 34.514C44.9246 34.4774 44.8779 34.4422 44.8299 34.4106C44.7832 34.379 44.7328 34.3497 44.682 34.3227C44.6317 34.2957 44.579 34.2714 44.5264 34.249C44.4737 34.2279 44.4197 34.2078 44.3648 34.1918C44.3094 34.1753 44.2535 34.1602 44.1982 34.1492C44.1409 34.1378 44.0846 34.1295 44.0269 34.1236C43.9125 34.1121 43.7962 34.1121 43.6813 34.1236C43.6241 34.1295 43.5669 34.1378 43.5101 34.1492C43.4552 34.1602 43.3994 34.1753 43.344 34.1918C43.289 34.2078 43.235 34.2279 43.1824 34.249C43.1293 34.2714 43.0771 34.2957 43.0263 34.3227C42.9759 34.3497 42.9256 34.379 42.8789 34.4106C42.8308 34.4422 42.7837 34.4774 42.7393 34.514C42.6949 34.5502 42.6514 34.5887 42.6115 34.6299C42.5703 34.6697 42.5319 34.7132 42.4957 34.7576C42.4591 34.802 42.4243 34.8491 42.3923 34.8972C42.3607 34.9439 42.3314 34.9942 42.3044 35.0446C42.2778 35.0949 42.2531 35.148 42.2307 35.2007C42.2096 35.2533 42.1895 35.3074 42.1735 35.3623C42.1556 35.4172 42.1419 35.4726 42.1313 35.5285C42.1194 35.5848 42.1112 35.6424 42.1053 35.6997C42.0993 35.7573 42.0961 35.8146 42.0961 35.8722C42.0961 35.9295 42.0993 35.988 42.1053 36.0453C42.1112 36.102 42.1194 36.1592 42.1313 36.2156Z" fill="white"/>
<path d="M47.6726 51.3983C47.0065 50.6924 45.8942 50.6595 45.1878 51.3255L37.7785 58.3114C37.4123 58.6575 37.2021 59.1455 37.2021 59.6495C37.2026 60.1535 37.4132 60.641 37.7798 60.9866L45.1878 67.9716C45.5275 68.2916 45.9605 68.4504 46.3931 68.4504C46.8605 68.4504 47.3265 68.2651 47.6726 67.8984C48.3386 67.1925 48.3057 66.0797 47.5993 65.4136L41.485 59.6486L47.5993 53.8835C48.3061 53.2175 48.3386 52.1046 47.6726 51.3983Z" fill="white"/>
<path d="M58.7784 50.9987C57.8912 50.6037 56.8525 51.0024 56.4575 51.8895L50.1839 65.9777C49.7888 66.8648 50.1875 67.9035 51.0747 68.2985C51.3067 68.402 51.5498 68.451 51.7888 68.451C52.4617 68.451 53.1039 68.0623 53.3955 67.4077L59.6692 53.3196C60.0642 52.4324 59.665 51.3938 58.7784 50.9987Z" fill="white"/>
<path d="M64.8122 51.3255C64.1059 50.6595 62.9935 50.6924 62.3275 51.3983C61.6614 52.1046 61.6944 53.2175 62.4007 53.883L68.515 59.6486L62.4007 65.4136C61.6944 66.0797 61.6614 67.1921 62.3275 67.8984C62.6735 68.2651 63.1395 68.4504 63.6069 68.4504C64.039 68.4504 64.4725 68.2916 64.8122 67.9716L72.2202 60.9866C72.5868 60.641 72.7974 60.1535 72.7979 59.6495C72.7979 59.145 72.5878 58.6575 72.2202 58.3105L64.8122 51.3255Z" fill="white"/>
</svg>
