<svg width="22" height="22" viewBox="0 0 22 22" fill="none" xmlns="http://www.w3.org/2000/svg">
<circle cx="11" cy="11" r="11" fill="#2AACC8"/>
<mask id="path-2-inside-1" fill="white">
<path fill-rule="evenodd" clip-rule="evenodd" d="M11 7L19 13.3724L18 14.5L11 9L4 14.5L3 13.3724L11 7Z"/>
</mask>
<path fill-rule="evenodd" clip-rule="evenodd" d="M11 7L19 13.3724L18 14.5L11 9L4 14.5L3 13.3724L11 7Z" fill="black"/>
<path d="M11 7L40.9062 -30.5449L11 -54.3665L-18.9062 -30.5449L11 7ZM19 13.3724L54.9127 45.2201L88.4897 7.35752L48.9062 -24.1725L19 13.3724ZM18 14.5L-11.6554 52.2433L23.906 80.1844L53.9127 46.3478L18 14.5ZM11 9L40.6554 -28.7433L11 -52.044L-18.6554 -28.7433L11 9ZM4 14.5L-31.9127 46.3478L-1.90598 80.1844L33.6554 52.2433L4 14.5ZM3 13.3724L-26.9062 -24.1725L-66.4897 7.3575L-32.9127 45.2201L3 13.3724ZM-18.9062 44.5449L-10.9062 50.9172L48.9062 -24.1725L40.9062 -30.5449L-18.9062 44.5449ZM-16.9127 -18.4754L-17.9127 -17.3478L53.9127 46.3478L54.9127 45.2201L-16.9127 -18.4754ZM47.6554 -23.2433L40.6554 -28.7433L-18.6554 46.7433L-11.6554 52.2433L47.6554 -23.2433ZM-18.6554 -28.7433L-25.6554 -23.2433L33.6554 52.2433L40.6554 46.7433L-18.6554 -28.7433ZM39.9127 -17.3478L38.9127 -18.4754L-32.9127 45.2201L-31.9127 46.3478L39.9127 -17.3478ZM32.9062 50.9173L40.9062 44.5449L-18.9062 -30.5449L-26.9062 -24.1725L32.9062 50.9173Z" fill="black" mask="url(#path-2-inside-1)"/>
</svg>
